<?xml version="1.0" encoding="UTF-8" standalone="no"?>
<svg
   xmlns:dc="http://purl.org/dc/elements/1.1/"
   xmlns:cc="http://creativecommons.org/ns#"
   xmlns:rdf="http://www.w3.org/1999/02/22-rdf-syntax-ns#"
   xmlns:svg="http://www.w3.org/2000/svg"
   xmlns="http://www.w3.org/2000/svg"
   xmlns:sodipodi="http://sodipodi.sourceforge.net/DTD/sodipodi-0.dtd"
   xmlns:inkscape="http://www.inkscape.org/namespaces/inkscape"
   id="logo_art"
   data-name="logo art"
   viewBox="0 0 337.57791 310.9917"
   version="1.1"
   sodipodi:docname="gitlab-logo.svg"
   width="337.57791"
   height="310.9917"
   inkscape:version="0.92.4 5da689c313, 2019-01-14">
  <metadata
     id="metadata3757">
    <rdf:RDF>
      <cc:Work
         rdf:about="">
        <dc:format>image/svg+xml</dc:format>
        <dc:type
           rdf:resource="http://purl.org/dc/dcmitype/StillImage" />
        <dc:title>gitlab-icon-rgb</dc:title>
      </cc:Work>
    </rdf:RDF>
  </metadata>
  <sodipodi:namedview
     pagecolor="#ffffff"
     bordercolor="#666666"
     borderopacity="1"
     objecttolerance="10"
     gridtolerance="10"
     guidetolerance="10"
     inkscape:pageopacity="0"
     inkscape:pageshadow="2"
     inkscape:window-width="3840"
     inkscape:window-height="2108"
     id="namedview3755"
     showgrid="false"
     fit-margin-top="0"
     fit-margin-left="0"
     fit-margin-right="0"
     fit-margin-bottom="0"
     inkscape:zoom="3.3291592"
     inkscape:cx="168.79131"
     inkscape:cy="155.5"
     inkscape:window-x="0"
     inkscape:window-y="676"
     inkscape:window-maximized="0"
     inkscape:current-layer="logo_art" />
  <defs
     id="defs3734">
    <style
       id="style3732">.cls-1{fill:#fc6d26;}.cls-2{fill:#e24329;}.cls-3{fill:#fca326;}</style>
  </defs>
  <title
     id="title3736">gitlab-icon-rgb</title>
  <g
     id="g44"
     transform="translate(-124.20869,-124.00831)">
    <path
       id="path46"
       class="cls-1"
       d="M 461.17,301.83 442.26,243.71 404.84,128.43 a 6.47,6.47 0 0 0 -12.27,0 L 355.15,243.64 H 230.82 L 193.4,128.43 a 6.46,6.46 0 0 0 -12.26,0 l -37.36,115.21 -18.91,58.19 a 12.88,12.88 0 0 0 4.66,14.39 L 293,435 456.44,316.22 a 12.9,12.9 0 0 0 4.73,-14.39"
       inkscape:connector-curvature="0"
       style="fill:#fc6d26" />
  </g>
  <g
     id="g48"
     transform="translate(-124.20869,-124.00831)">
    <path
       id="path50"
       class="cls-2"
       d="m 293,434.91 v 0 L 355.16,243.63 H 230.87 Z"
       inkscape:connector-curvature="0"
       style="fill:#e24329" />
  </g>
  <g
     id="g56"
     transform="translate(-124.20869,-124.00831)">
    <path
       id="path58"
       class="cls-1"
       d="M 293,434.91 230.82,243.63 h -87 z"
       inkscape:connector-curvature="0"
       style="fill:#fc6d26" />
  </g>
  <g
     id="g64"
     transform="translate(-124.20869,-124.00831)">
    <path
       id="path66"
       class="cls-3"
       d="m 143.75,243.69 v 0 l -18.91,58.12 a 12.88,12.88 0 0 0 4.66,14.39 L 293,435 Z"
       inkscape:connector-curvature="0"
       style="fill:#fca326" />
  </g>
  <g
     id="g72"
     transform="translate(-124.20869,-124.00831)">
    <path
       id="path74"
       class="cls-2"
       d="m 143.78,243.69 h 87.11 L 193.4,128.49 a 6.47,6.47 0 0 0 -12.27,0 z"
       inkscape:connector-curvature="0"
       style="fill:#e24329" />
  </g>
  <g
     id="g76"
     transform="translate(-124.20869,-124.00831)">
    <path
       id="path78"
       class="cls-1"
       d="M 293,434.91 355.16,243.63 H 442.3 Z"
       inkscape:connector-curvature="0"
       style="fill:#fc6d26" />
  </g>
  <g
     id="g80"
     transform="translate(-124.20869,-124.00831)">
    <path
       id="path82"
       class="cls-3"
       d="m 442.24,243.69 v 0 l 18.91,58.12 a 12.85,12.85 0 0 1 -4.66,14.39 L 293,434.91 442.2,243.69 Z"
       inkscape:connector-curvature="0"
       style="fill:#fca326" />
  </g>
  <g
     id="g84"
     transform="translate(-124.20869,-124.00831)">
    <path
       id="path86"
       class="cls-2"
       d="m 442.28,243.69 h -87.1 l 37.42,-115.2 a 6.46,6.46 0 0 1 12.26,0 z"
       inkscape:connector-curvature="0"
       style="fill:#e24329" />
  </g>
</svg>
